:SAMPLES-PER-SECOND 30
:FULLY-SPECIFIED
:DEGREES
113
root  34.98540563 36.48275841 -14.73161592 12.02035904 13.15192223 4.985082626
lowerback  -8.683540344 3.212749958 3.63863945
upperback  -4.492340088 3.643810034 -4.786799908
thorax  0.736496985 1.553990006 -6.706439972
lowerneck  -15.09780025 -5.194250107 -1.867990017
upperneck  11.09689999 -7.825550079 7.080239773
head  6.206600189 -3.396310329 1.774760127
lclavicle  0 -4.497500157e-015 -2.743230041e-014
lhumerus  -42.72529984 28.08580017 67.71050262
lradius  -0.09675078094 -6.507048965e-006 25.55610085
lwrist  4.824992743e-007 -3.790274832e-007 -35.58150101
lhand  -3.519067976e-031 -36.64609909 -10.67959976
lfingers  90 7.125020027 -90
lthumb  94.69805145 -25.52427101 100.7978745
rclavicle  0 -4.497500157e-015 -2.743230041e-014
rhumerus  61.52099991 -9.767279625 -55.75590134
rradius  -5.16745672e-007 2.214343908e-008 47.22579956
rwrist  1.380293725e-006 2.528095422e-007 -160.7879944
rhand  -3.135749727e-031 4.134659767 -5.91203022
rfingers  -90 -7.125020027 -90
rthumb  -84.31228638 -9.918152809 -59.96178055
rfemur  -14.48153114 10.34261322 14.46657467
rtibia  -3.33421278 2.225683212 24.38938904
rfoot  -2.90465951 -13.83219242 -45.31981659
rtoes  4.145581722 19.58598328 -102.2023315
lfemur  -12.63626957 -23.3653183 -18.83794403
ltibia  3.55305624 2.497858047 14.7345314
lfoot  0.770585537 -29.87023544 28.83963013
ltoes  -8.464479446 -18.17884064 -115.4912338
114
root  34.98549274 36.48000101 -14.73193131 12.06497574 13.28093052 5.044185638
lowerback  -8.715221405 3.26376009 3.725130796
upperback  -4.457459927 3.709830046 -4.817530155
thorax  0.8067690134 1.590299964 -6.779469967
lowerneck  -15.07419968 -5.289299965 -1.926450014
upperneck  11.01200008 -7.947740555 7.152599812
head  6.186850071 -3.455750227 1.795210004
lclavicle  0 -4.497500157e-015 -2.743230041e-014
lhumerus  -42.62810135 28.05109787 67.73889923
lradius  -0.09675078094 -6.507048965e-006 25.51370239
lwrist  4.824992743e-007 -3.790274832e-007 -35.54109955
lhand  -3.52201194e-031 -36.6427002 -10.64449978
lfingers  90 7.125020027 -90
lthumb  94.68919373 -25.48996162 100.7911148
rclavicle  0 -4.497500157e-015 -2.743230041e-014
rhumerus  62.02039719 -9.96158886 -55.81349945
rradius  -5.16745672e-007 2.214343908e-008 46.50379944
rwrist  1.380293725e-006 2.528095422e-007 -160.0890045
rhand  -3.142948114e-031 4.397830009 -5.803209782
rfingers  -90 -7.125020027 -90
rthumb  -84.18997192 -10.02579021 -59.69453812
rfemur  -14.52312279 10.27740765 14.45038033
rtibia  -3.380729198 2.187863111 24.4626255
rfoot  -2.960932016 -13.84448719 -45.39038849
rtoes  4.164633274 19.58598328 -102.2591782
lfemur  -12.65397739 -23.47506332 -18.87073517
ltibia  3.582251787 2.511558056 14.6835537
lfoot  0.7873988748 -29.87081528 28.83104134
ltoes  -8.480561256 -18.18003082 -115.5427704
115
root  34.98561889 36.47874246 -14.73215809 12.0806694 13.41058826 5.075809002
lowerback  -8.717848778 3.298399687 3.740619421
upperback  -4.464690208 3.755300045 -4.820670128
thorax  0.8084229827 1.613019943 -6.786719799
lowerneck  -15.01889992 -5.379499912 -1.994510055
upperneck  10.96100044 -8.051179886 7.158430099
head  6.169020176 -3.510449648 1.798740029
lclavicle  0 -4.497500157e-015 -2.743230041e-014
lhumerus  -42.63240051 28.03759956 67.7602005
lradius  -0.09675078094 -6.507048965e-006 25.51459885
lwrist  4.824992743e-007 -3.790274832e-007 -35.42879868
lhand  -3.51930109e-031 -36.90190125 -10.64080048
lfingers  90 7.125020027 -90
lthumb  94.80967712 -25.47720909 101.0679169
rclavicle  0 -4.497500157e-015 -2.743230041e-014
rhumerus  62.40710068 -10.05599976 -55.53219986
rradius  -5.16745672e-007 2.214343908e-008 45.94120026
rwrist  1.380293725e-006 2.528095422e-007 -159.5119934
rhand  -3.150693577e-031 4.392399788 -5.688370228
rfingers  -90 -7.125020027 -90
rthumb  -84.13249969 -10.12464046 -59.68947601
rfemur  -14.53121853 10.22079468 14.45973587
rtibia  -3.412494898 2.180099249 24.50755119
rfoot  -2.987767458 -13.82391167 -45.43350601
rtoes  4.156970501 19.58598328 -102.2363129
lfemur  -12.70615864 -23.55355644 -18.8676796
ltibia  3.569102049 2.506851912 14.72790718
lfoot  0.7818861008 -29.88014412 28.75766563
ltoes  -8.470718384 -18.18449783 -115.5112228
116
root  34.98577809 36.47748992 -14.73237285 12.10205364 13.54790401 5.130548
lowerback  -8.744210243 3.323200226 3.755509615
upperback  -4.453340054 3.789299965 -4.809949875
thorax  0.8398939967 1.632210016 -6.778570175
lowerneck  -14.99880028 -5.459969997 -2.024539948
upperneck  10.8980999 -8.141900063 7.128389835
head  6.148698807 -3.559113026 1.786378264
lclavicle  0 -4.497500157e-015 -2.743230041e-014
lhumerus  -42.62400055 28.13010025 67.70980072
lradius  -0.09675078094 -6.507048965e-006 25.46109581
lwrist  4.824992743e-007 -3.790274832e-007 -35.55149841
lhand  -3.546919171e-031 -36.84749985 -10.31579971
lfingers  90 7.125020027 -90
lthumb  94.71563721 -25.16011238 100.9804001
rclavicle  0 -4.497500157e-015 -2.743230041e-014
rhumerus  63.21849823 -10.27799988 -56.53110123
rradius  -5.16745672e-007 2.214343908e-008 44.8810997
rwrist  1.380293725e-006 2.528095422e-007 -158.1100006
rhand  -3.159756845e-031 4.399310112 -5.553919792
rfingers  -90 -7.125020027 -90
rthumb  -84.06176758 -10.24101543 -59.67051315
rfemur  -14.5463686 10.17336464 14.44997883
rtibia  -3.456326962 2.180164576 24.57779121
rfoot  -3.019531727 -13.76014614 -45.47288895
rtoes  4.15977335 19.58598328 -102.2446747
lfemur  -12.68191147 -23.61560822 -18.91808701
ltibia  3.601864338 2.514719486 14.66492939
lfoot  0.7825021744 -29.87076759 28.69524956
ltoes  -8.505496979 -18.16868973 -115.6227112
